<svg aria-hidden="true" style="position: absolute; width: 0; height: 0; overflow: hidden;" version="1.1" xmlns="http://www.w3.org/2000/svg" xmlns:xlink="http://www.w3.org/1999/xlink">
<defs>
<symbol id="icon-educonf-symbol" viewBox="0 0 32 32">
<path d="M11.73 18.027h6.376c0.333 0 0.615-0.115 0.845-0.346s0.345-0.514 0.345-0.85c0-0.338-0.115-0.621-0.345-0.849s-0.511-0.342-0.845-0.342h-6.376c-0.338 0-0.62 0.116-0.847 0.348s-0.34 0.516-0.34 0.853 0.113 0.619 0.34 0.845c0.227 0.227 0.509 0.34 0.847 0.34zM11.725 14.487h13.034c0.331 0 0.611-0.116 0.841-0.347s0.344-0.514 0.344-0.849c0-0.338-0.115-0.621-0.344-0.849s-0.51-0.342-0.841-0.342h-13.034c-0.334 0-0.615 0.116-0.842 0.348s-0.34 0.516-0.34 0.853 0.113 0.619 0.34 0.846c0.227 0.227 0.508 0.34 0.842 0.34zM11.725 10.948h13.034c0.331 0 0.611-0.115 0.841-0.346s0.344-0.514 0.344-0.849c0-0.338-0.115-0.621-0.344-0.849s-0.51-0.342-0.841-0.342h-13.034c-0.334 0-0.615 0.116-0.842 0.348s-0.34 0.517-0.34 0.854c0 0.337 0.113 0.619 0.34 0.846s0.508 0.34 0.842 0.34zM7.548 26.587c-0.707 0-1.32-0.259-1.839-0.778s-0.778-1.132-0.778-1.839v-21.344c0-0.709 0.259-1.324 0.778-1.845s1.132-0.781 1.839-0.781h21.344c0.709 0 1.324 0.26 1.845 0.781s0.781 1.136 0.781 1.845v21.344c0 0.707-0.26 1.32-0.781 1.839s-1.136 0.778-1.845 0.778h-21.344zM7.548 23.97h21.344v-21.344h-21.344v21.344zM2.626 31.518c-0.709 0-1.324-0.26-1.845-0.781s-0.781-1.136-0.781-1.845v-22.653c0-0.369 0.126-0.68 0.379-0.931s0.566-0.377 0.941-0.377c0.374 0 0.686 0.126 0.934 0.377s0.373 0.562 0.373 0.931v22.653h22.653c0.369 0 0.68 0.126 0.931 0.379s0.377 0.567 0.377 0.941c0 0.374-0.126 0.686-0.377 0.934s-0.562 0.372-0.931 0.372h-22.653z"></path>
</symbol>
</defs>
</svg>