<svg aria-hidden="true" style="position: absolute; width: 0; height: 0; overflow: hidden;" version="1.1" xmlns="http://www.w3.org/2000/svg" xmlns:xlink="http://www.w3.org/1999/xlink">
<defs>
<symbol id="icon-menu" viewBox="0 0 48 32">
<path d="M0 5.333v-5.333h48v5.333h-48zM0 18.667h48v-5.333h-48v5.333zM0 32h48v-5.333h-48v5.333z"></path>
</symbol>
<symbol id="icon-verify" viewBox="0 0 34 32">
<path d="M15.027 17.656l-2.735-2.859c-0.242-0.266-0.536-0.399-0.88-0.399s-0.65 0.117-0.916 0.352c-0.266 0.269-0.399 0.576-0.399 0.92s0.133 0.649 0.399 0.915l3.613 3.575c0.261 0.265 0.568 0.398 0.92 0.398s0.658-0.133 0.917-0.398l6.89-6.851c0.241-0.235 0.361-0.526 0.361-0.875s-0.133-0.643-0.399-0.884c-0.241-0.209-0.527-0.307-0.86-0.294s-0.604 0.127-0.813 0.342l-6.097 6.059zM10.863 31.197l-2.344-4.011-4.687-0.952c-0.322-0.057-0.589-0.228-0.8-0.513s-0.292-0.588-0.242-0.908l0.533-4.533-2.982-3.48c-0.228-0.236-0.341-0.524-0.341-0.864s0.114-0.627 0.341-0.86l2.982-3.442-0.533-4.533c-0.051-0.32 0.030-0.623 0.242-0.908s0.479-0.459 0.8-0.522l4.69-0.945 2.341-4.047c0.17-0.282 0.414-0.482 0.733-0.6s0.637-0.105 0.953 0.040l4.116 1.925 4.116-1.925c0.316-0.139 0.634-0.158 0.953-0.055s0.563 0.294 0.733 0.576l2.379 4.085 4.652 0.945c0.322 0.063 0.589 0.237 0.8 0.522s0.292 0.588 0.242 0.908l-0.533 4.533 2.982 3.442c0.228 0.236 0.341 0.524 0.341 0.864s-0.114 0.626-0.341 0.86l-2.982 3.48 0.533 4.533c0.051 0.32-0.030 0.623-0.242 0.908s-0.479 0.456-0.8 0.513l-4.649 0.952-2.382 4.049c-0.17 0.282-0.414 0.474-0.733 0.576s-0.637 0.084-0.953-0.055l-4.116-1.925-4.116 1.925c-0.316 0.139-0.634 0.151-0.953 0.036s-0.563-0.313-0.733-0.595zM12.623 28.828l4.041-1.71 4.155 1.71 2.534-3.782 4.421-1.134-0.448-4.508 3.049-3.467-3.049-3.544 0.448-4.506-4.421-1.058-2.607-3.782-4.080 1.709-4.155-1.709-2.532 3.784-4.414 1.051 0.439 4.51-3.049 3.544 3.049 3.468-0.439 4.587 4.413 1.051 2.645 3.784z"></path>
</symbol>
</defs>
</svg>
