<svg aria-hidden="true" style="position: absolute; width: 0; height: 0; overflow: hidden;" version="1.1" xmlns="http://www.w3.org/2000/svg" xmlns:xlink="http://www.w3.org/1999/xlink">
<defs>
<symbol id="icon-menu" viewBox="0 0 48 32">
<path d="M0 5.333v-5.333h48v5.333h-48zM0 18.667h48v-5.333h-48v5.333zM0 32h48v-5.333h-48v5.333z"></path>
</symbol>
<symbol id="icon-x" viewBox="0 0 32 32">
<path d="M26.667 7.303l-1.97-1.97-7.808 7.808-7.808-7.808-1.97 1.97 7.808 7.808-7.808 7.808 1.97 1.97 7.808-7.808 7.808 7.808 1.97-1.97-7.808-7.808 7.808-7.808z"></path>
</symbol>
<symbol id="icon-facebook" viewBox="0 0 32 32">
<path d="M32 16.098c0-8.891-7.163-16.098-16-16.098s-16 7.207-16 16.098c0 8.035 5.851 14.695 13.5 15.902v-11.249h-4.063v-4.653h4.063v-3.547c0-4.035 2.389-6.263 6.043-6.263 1.751 0 3.582 0.314 3.582 0.314v3.962h-2.017c-1.988 0-2.608 1.241-2.608 2.514v3.020h4.437l-0.709 4.653h-3.728v11.249c7.649-1.208 13.5-7.867 13.5-15.902z"></path>
</symbol>
<symbol id="icon-xx" viewBox="0 0 32 32">
<path d="M22.901 5.657h3.68l-8.040 9.037 9.459 12.297h-7.406l-5.801-7.458-6.637 7.458h-3.682l8.6-9.666-9.074-11.668h7.594l5.243 6.817 6.064-6.817zM21.61 24.824h2.039l-13.163-17.115h-2.188l13.312 17.115z"></path>
</symbol>
<symbol id="icon-in" viewBox="0 0 32 32">
<path d="M29 0h-26c-1.65 0-3 1.35-3 3v26c0 1.65 1.35 3 3 3h26c1.65 0 3-1.35 3-3v-26c0-1.65-1.35-3-3-3zM12 26h-4v-14h4v14zM10 10c-1.106 0-2-0.894-2-2s0.894-2 2-2c1.106 0 2 0.894 2 2s-0.894 2-2 2zM26 26h-4v-8c0-1.106-0.894-2-2-2s-2 0.894-2 2v8h-4v-14h4v2.481c0.825-1.131 2.087-2.481 3.5-2.481 2.488 0 4.5 2.238 4.5 5v9z"></path>
</symbol>
<symbol id="icon-instagram" viewBox="0 0 32 32">
<path d="M16.316 32c-0.106 0-0.212 0-0.319-0-2.508 0.006-4.826-0.058-7.080-0.195-2.066-0.126-3.953-0.84-5.455-2.065-1.45-1.182-2.44-2.781-2.942-4.75-0.438-1.715-0.461-3.398-0.483-5.026-0.016-1.168-0.033-2.553-0.036-3.96 0.003-1.414 0.020-2.798 0.036-3.966 0.022-1.628 0.045-3.311 0.483-5.026 0.503-1.97 1.493-3.568 2.942-4.75 1.503-1.225 3.389-1.939 5.456-2.065 2.254-0.137 4.572-0.201 7.086-0.195 2.509-0.005 4.826 0.058 7.080 0.195 2.066 0.126 3.953 0.84 5.455 2.065 1.45 1.182 2.44 2.781 2.943 4.75 0.437 1.715 0.461 3.398 0.483 5.026 0.016 1.168 0.033 2.553 0.036 3.96v0.006c-0.003 1.408-0.020 2.792-0.036 3.96-0.022 1.628-0.045 3.311-0.483 5.026-0.503 1.97-1.493 3.568-2.943 4.75-1.502 1.225-3.389 1.939-5.455 2.065-2.159 0.131-4.376 0.195-6.768 0.195zM15.997 29.5c2.468 0.006 4.733-0.056 6.934-0.19 1.563-0.095 2.917-0.602 4.027-1.507 1.026-0.837 1.732-1.991 2.1-3.431 0.364-1.428 0.385-2.96 0.406-4.442 0.016-1.16 0.032-2.535 0.036-3.929-0.004-1.394-0.020-2.769-0.036-3.929-0.020-1.482-0.041-3.015-0.406-4.443-0.367-1.44-1.074-2.594-2.1-3.431-1.11-0.905-2.465-1.412-4.027-1.507-2.201-0.134-4.467-0.196-6.928-0.19-2.467-0.006-4.733 0.056-6.934 0.19-1.563 0.095-2.917 0.602-4.027 1.507-1.026 0.837-1.732 1.991-2.1 3.431-0.364 1.428-0.385 2.96-0.406 4.443-0.016 1.161-0.032 2.537-0.036 3.932 0.003 1.389 0.020 2.765 0.036 3.926 0.020 1.482 0.041 3.015 0.406 4.442 0.367 1.44 1.074 2.594 2.1 3.431 1.11 0.905 2.465 1.412 4.027 1.507 2.201 0.134 4.467 0.197 6.928 0.191zM15.937 23.812c-4.308 0-7.813-3.505-7.813-7.812s3.505-7.813 7.813-7.813c4.308 0 7.813 3.505 7.813 7.813s-3.505 7.812-7.813 7.812zM15.937 10.687c-2.929 0-5.313 2.383-5.313 5.313s2.383 5.312 5.313 5.312c2.93 0 5.313-2.383 5.313-5.312s-2.383-5.313-5.313-5.313zM24.625 5.687c-1.035 0-1.875 0.839-1.875 1.875s0.84 1.875 1.875 1.875c1.036 0 1.875-0.839 1.875-1.875s-0.839-1.875-1.875-1.875z"></path>
</symbol>
<symbol id="icon-verify" viewBox="0 0 34 32">
<path d="M15.027 17.656l-2.735-2.859c-0.242-0.266-0.536-0.399-0.88-0.399s-0.65 0.117-0.916 0.352c-0.266 0.269-0.399 0.576-0.399 0.92s0.133 0.649 0.399 0.915l3.613 3.575c0.261 0.265 0.568 0.398 0.92 0.398s0.658-0.133 0.917-0.398l6.89-6.851c0.241-0.235 0.361-0.526 0.361-0.875s-0.133-0.643-0.399-0.884c-0.241-0.209-0.527-0.307-0.86-0.294s-0.604 0.127-0.813 0.342l-6.097 6.059zM10.863 31.197l-2.344-4.011-4.687-0.952c-0.322-0.057-0.589-0.228-0.8-0.513s-0.292-0.588-0.242-0.908l0.533-4.533-2.982-3.48c-0.228-0.236-0.341-0.524-0.341-0.864s0.114-0.627 0.341-0.86l2.982-3.442-0.533-4.533c-0.051-0.32 0.030-0.623 0.242-0.908s0.479-0.459 0.8-0.522l4.69-0.945 2.341-4.047c0.17-0.282 0.414-0.482 0.733-0.6s0.637-0.105 0.953 0.040l4.116 1.925 4.116-1.925c0.316-0.139 0.634-0.158 0.953-0.055s0.563 0.294 0.733 0.576l2.379 4.085 4.652 0.945c0.322 0.063 0.589 0.237 0.8 0.522s0.292 0.588 0.242 0.908l-0.533 4.533 2.982 3.442c0.228 0.236 0.341 0.524 0.341 0.864s-0.114 0.626-0.341 0.86l-2.982 3.48 0.533 4.533c0.051 0.32-0.030 0.623-0.242 0.908s-0.479 0.456-0.8 0.513l-4.649 0.952-2.382 4.049c-0.17 0.282-0.414 0.474-0.733 0.576s-0.637 0.084-0.953-0.055l-4.116-1.925-4.116 1.925c-0.316 0.139-0.634 0.151-0.953 0.036s-0.563-0.313-0.733-0.595zM12.623 28.828l4.041-1.71 4.155 1.71 2.534-3.782 4.421-1.134-0.448-4.508 3.049-3.467-3.049-3.544 0.448-4.506-4.421-1.058-2.607-3.782-4.080 1.709-4.155-1.709-2.532 3.784-4.414 1.051 0.439 4.51-3.049 3.544 3.049 3.468-0.439 4.587 4.413 1.051 2.645 3.784z"></path>
</symbol>
<symbol id="icon-Logo" viewBox="0 0 134 32">
<path d="M12.364 17.764h5.47c0.286 0 0.528-0.099 0.725-0.297s0.296-0.441 0.296-0.729c0-0.29-0.099-0.533-0.296-0.729s-0.439-0.294-0.725-0.294h-5.47c-0.29 0-0.532 0.1-0.727 0.299s-0.292 0.443-0.292 0.732c0 0.289 0.097 0.531 0.292 0.725s0.437 0.292 0.727 0.292zM12.359 14.727h11.182c0.284 0 0.525-0.099 0.722-0.297s0.295-0.441 0.295-0.729c0-0.29-0.098-0.533-0.295-0.729s-0.438-0.294-0.722-0.294h-11.182c-0.287 0-0.528 0.1-0.722 0.299s-0.292 0.443-0.292 0.732 0.097 0.531 0.292 0.726c0.195 0.195 0.435 0.292 0.722 0.292zM12.359 11.69h11.182c0.284 0 0.525-0.099 0.722-0.297s0.295-0.441 0.295-0.729c0-0.29-0.098-0.533-0.295-0.729s-0.438-0.294-0.722-0.294h-11.182c-0.287 0-0.528 0.099-0.722 0.298s-0.292 0.443-0.292 0.732 0.097 0.531 0.292 0.726c0.195 0.195 0.435 0.292 0.722 0.292zM8.775 25.108c-0.606 0-1.132-0.223-1.577-0.668s-0.668-0.971-0.668-1.578v-18.312c0-0.609 0.223-1.136 0.668-1.583s0.971-0.67 1.577-0.67h18.312c0.608 0 1.136 0.223 1.583 0.67s0.67 0.975 0.67 1.583v18.312c0 0.606-0.223 1.132-0.67 1.578s-0.975 0.668-1.583 0.668h-18.312zM8.775 22.863h18.312v-18.312h-18.312v18.312zM4.553 29.338c-0.609 0-1.136-0.223-1.583-0.67s-0.67-0.975-0.67-1.583v-19.435c0-0.317 0.108-0.583 0.325-0.799s0.486-0.324 0.807-0.324c0.321 0 0.588 0.108 0.801 0.324s0.32 0.482 0.32 0.799v19.435h19.435c0.317 0 0.583 0.108 0.799 0.325s0.324 0.486 0.324 0.807c0 0.321-0.108 0.588-0.324 0.801s-0.482 0.319-0.799 0.319h-19.435z"></path>
<path d="M127.209 24.129v-9.409h-2.421v-2.724h2.421v-3.989c0-1.027 0.174-1.871 0.523-2.531 0.367-0.66 0.853-1.156 1.458-1.486s1.293-0.495 2.064-0.495h1.761v2.751h-0.99c-0.459 0-0.808 0.165-1.046 0.495-0.238 0.312-0.358 0.798-0.358 1.458v3.797h2.861v2.724h-2.861v9.409h-3.411z"></path>
<path d="M111.885 24.129v-12.133h3.411v1.706c0.403-0.587 0.926-1.055 1.568-1.403 0.643-0.367 1.376-0.55 2.201-0.55 1.046 0 1.898 0.22 2.558 0.66 0.661 0.422 1.156 1.027 1.486 1.816s0.495 1.724 0.495 2.806v7.098h-3.411v-7.098c0-0.477-0.065-0.899-0.193-1.266s-0.339-0.651-0.633-0.853c-0.293-0.202-0.678-0.303-1.155-0.303-0.623 0-1.155 0.174-1.596 0.523-0.44 0.33-0.771 0.789-0.99 1.376-0.22 0.569-0.33 1.201-0.33 1.898v5.723h-3.411z"></path>
<path d="M103.076 24.349c-1.303 0-2.477-0.257-3.522-0.77-1.046-0.532-1.871-1.275-2.477-2.229s-0.908-2.054-0.908-3.302c0-1.229 0.303-2.311 0.908-3.246 0.605-0.954 1.431-1.706 2.477-2.256s2.219-0.825 3.522-0.825c1.302 0 2.467 0.275 3.494 0.825 1.046 0.55 1.871 1.302 2.476 2.256 0.624 0.935 0.936 2.018 0.936 3.246 0 1.247-0.302 2.348-0.908 3.302s-1.431 1.697-2.476 2.229c-1.046 0.514-2.22 0.77-3.522 0.77zM103.076 21.598c0.752 0 1.375-0.165 1.87-0.495 0.495-0.349 0.862-0.789 1.101-1.321 0.238-0.55 0.358-1.128 0.358-1.733 0-0.624-0.129-1.201-0.385-1.733-0.239-0.55-0.605-0.99-1.101-1.321-0.477-0.349-1.091-0.523-1.843-0.523s-1.376 0.174-1.871 0.523c-0.495 0.33-0.872 0.77-1.128 1.321-0.239 0.532-0.358 1.11-0.358 1.733 0 0.605 0.119 1.183 0.358 1.733 0.238 0.532 0.605 0.972 1.1 1.321 0.514 0.33 1.147 0.495 1.899 0.495z"></path>
<path d="M86.312 24.404c-1.32 0-2.558-0.248-3.714-0.743s-2.174-1.183-3.054-2.063c-0.862-0.899-1.541-1.926-2.036-3.081-0.495-1.174-0.743-2.421-0.743-3.742 0-1.302 0.238-2.531 0.715-3.687 0.495-1.174 1.174-2.201 2.036-3.081 0.88-0.899 1.898-1.596 3.054-2.091 1.156-0.514 2.403-0.77 3.742-0.77 1.376 0 2.659 0.275 3.852 0.825s2.229 1.302 3.109 2.256c0.899 0.935 1.568 2.036 2.008 3.302h-3.769c-0.514-1.027-1.247-1.807-2.201-2.339s-1.99-0.798-3.108-0.798c-0.752 0-1.486 0.156-2.201 0.468s-1.357 0.761-1.926 1.348c-0.569 0.569-1.027 1.247-1.376 2.036-0.33 0.77-0.495 1.614-0.495 2.531 0 0.88 0.156 1.715 0.468 2.504 0.33 0.77 0.77 1.449 1.321 2.036 0.55 0.569 1.192 1.027 1.926 1.376 0.752 0.33 1.55 0.495 2.393 0.495 1.119 0 2.147-0.293 3.081-0.88 0.954-0.605 1.67-1.376 2.147-2.311h3.769c-0.44 1.247-1.11 2.357-2.008 3.329-0.881 0.954-1.926 1.706-3.137 2.256-1.192 0.55-2.476 0.825-3.852 0.825z"></path>
<path d="M67.852 24.404c-1.027 0-1.871-0.22-2.531-0.66-0.66-0.459-1.156-1.082-1.486-1.871-0.312-0.807-0.468-1.724-0.468-2.751v-7.126h3.412v7.126c0 0.477 0.064 0.899 0.193 1.266s0.339 0.651 0.633 0.853c0.293 0.202 0.679 0.303 1.156 0.303 0.66 0 1.201-0.165 1.623-0.495 0.44-0.349 0.761-0.816 0.963-1.403 0.22-0.587 0.33-1.22 0.33-1.898v-5.75h3.412v12.133h-3.412v-1.678c-0.422 0.605-0.954 1.082-1.596 1.431s-1.385 0.523-2.229 0.523z"></path>
<path d="M53.031 24.404c-1.137 0-2.164-0.293-3.081-0.88-0.899-0.587-1.605-1.366-2.118-2.339s-0.77-2.008-0.77-3.109c0-1.119 0.257-2.155 0.77-3.109s1.22-1.733 2.118-2.339c0.917-0.605 1.944-0.908 3.081-0.908 0.844 0 1.642 0.156 2.394 0.468s1.385 0.807 1.898 1.486v-10.18h3.384v20.635h-3.384v-1.651c-0.293 0.422-0.669 0.779-1.128 1.073-0.459 0.275-0.963 0.486-1.513 0.633-0.532 0.147-1.082 0.22-1.651 0.22zM53.966 21.57c0.642 0 1.211-0.165 1.706-0.495 0.514-0.33 0.917-0.761 1.211-1.293s0.44-1.1 0.44-1.706c0-0.624-0.147-1.192-0.44-1.706-0.293-0.532-0.697-0.963-1.211-1.293-0.495-0.33-1.064-0.495-1.706-0.495s-1.211 0.165-1.706 0.495c-0.495 0.33-0.89 0.761-1.183 1.293-0.293 0.514-0.44 1.082-0.44 1.706 0 0.605 0.147 1.174 0.44 1.706s0.688 0.963 1.183 1.293 1.064 0.495 1.706 0.495z"></path>
<path d="M34.229 24.129v-18.709h11.473v3.081h-8.089v4.705h7.814v3.109h-7.814v4.732h8.089v3.081h-11.473z"></path>
</symbol>
</defs>
</svg>
